<svg xmlns="http://www.w3.org/2000/svg" width="512" height="512" viewBox="0 0 512 512">
  <rect width="512" height="512" rx="112" fill="#4945ff"/>
  <g transform="translate(128,128) scale(10.6667)">
    <path fill="#ffffff" d="M4.8.2c0-.11.09-.2.2-.2h18.8c.11 0 .2.09.2.2v4.4a.2.2 0 0 1-.2.2H5a.2.2 0 0 1-.2-.2V.2ZM0 9.8c0-.11.09-.2.2-.2H19c.11 0 .2.09.2.2v4.4a.2.2 0 0 1-.2.2H.2a.2.2 0 0 1-.2-.2V9.8ZM5 19.2a.2.2 0 0 0-.2.2v4.4c0 .11.09.2.2.2h18.8a.2.2 0 0 0 .2-.2v-4.4a.2.2 0 0 0-.2-.2H5Z"/>
  </g>
</svg>
